<svg xmlns="http://www.w3.org/2000/svg" stroke-miterlimit="10" viewBox="0 0 4096 4096" stroke-linecap="round" stroke-linejoin="round"><style>.B{fill-rule:evenodd}.C{color-interpolation-filters:sRGB}.D{stroke-linejoin:miter}</style><defs><linearGradient gradientUnits="userSpaceOnUse" id="A" x1="703.281" x2="3403.645" y1="566.048" y2="3316.55"><stop offset="0" stop-color="#d2e2fd"/><stop offset="1" stop-color="#0a7a7b"/></linearGradient><linearGradient gradientUnits="userSpaceOnUse" id="B" x1="2182.411" x2="4096.001" y1="1371.459" y2="3083.548"><stop offset="0" stop-color="#fff5c8"/><stop offset="1" stop-color="#efc30a"/></linearGradient><linearGradient gradientUnits="userSpaceOnUse" id="D" x1="132.556" x2="2216.682" y1="1107.136" y2="3208.009"><stop offset="0" stop-color="#ffecbe"/><stop offset="1" stop-color="#ffa200"/></linearGradient><filter filterUnits="userSpaceOnUse" height="5763.77" id="C" width="5164.38" x="309.875" y="0" class="C"><feDropShadow dx="-46.731" dy="17.782" flood-color="#d5b941" flood-opacity=".819" height="5763.77" stdDeviation="6.706" width="5164.38"/></filter><filter filterUnits="userSpaceOnUse" height="7163.17" id="E" width="7256.85" x="0" y="0" class="C"><feDropShadow dx="46.627" dy="18.055" flood-color="#887626" flood-opacity=".89" height="7163.17" stdDeviation="6.61" width="7256.85"/></filter></defs><g class="B"><path d="M0 0h4096v4096H0V0z" fill="#fff"/><path d="M599.995 3496.01C400 3296.03 400 800.024 599.995 600.008s2696.025-199.997 2896.005 0c199.99 199.997 200.01 2696.022 0 2896.002-200 199.98-2696.01 199.98-2896.005 0z" fill="url(#A)" stroke="#000146" stroke-width="200"/><path d="m3072 1277.67 316.43 621.46 347.7 48.97-11.36 422.78L3584 2482.53l120.87 683.06-632.87-322.5-632.87 322.5L2560 2482.53l-512-483.74 707.57-99.66L3072 1277.67z" fill="url(#B)" filter="url(#C)" stroke="#ffca4d" stroke-width="100" class="D"/><path d="M3646 0v4096h450V0h-450z" fill="#fff"/></g><path d="M599.994 3496.01c-199.995-199.98-199.995-2695.985 0-2896.001s2696.026-199.997 2896.006 0c199.99 199.997 200.01 2696.021 0 2896.001-200 199.98-2696.01 199.98-2896.006 0z" fill="none" stroke="#000146" stroke-width="200"/><path d="m1192.81 962.158 368.6 775.012 824.21 124.28-596.41 603.27 140.8 851.83-737.2-402.18-737.198 402.18 140.792-851.83L0 1861.45l824.211-124.28 368.599-775.012z" fill="url(#D)" filter="url(#E)" stroke="#d59702" stroke-width="120" class="B D"/></svg>